<?xml version="1.0" encoding="UTF-8" standalone="no"?>
<!-- Created with Inkscape (http://www.inkscape.org/) -->

<svg
   width="512"
   height="512"
   viewBox="0 0 135.46667 135.46667"
   version="1.1"
   id="svg1014"
   xml:space="preserve"
   xmlns="http://www.w3.org/2000/svg"
   xmlns:svg="http://www.w3.org/2000/svg"><defs
     id="defs1011" /><g
     id="layer1"><path
       id="path4721-7"
       style="fill:#f5f5f7;fill-opacity:1;stroke:none;stroke-width:0.48798;stroke-linejoin:bevel;stroke-miterlimit:3.5;stroke-dasharray:none;stroke-opacity:1"
       d="m 37.878295,70.242122 c 0.627998,0.41152 1.63582,-0.29091 2.207153,-0.533729 1.021771,-0.434256 1.29299,-0.654919 2.46741,-0.636266 0.655349,0.01042 1.873558,0.259566 2.474543,0.5796 0.910143,0.484667 1.683521,0.948393 2.326994,0.497457 0.31471,-0.220545 0.533001,-0.706228 0.116827,-1.122724 -0.420917,-0.421243 -1.228008,-0.86421 -2.010958,-1.110962 -0.897704,-0.282915 -1.936395,-0.569158 -2.893686,-0.565107 -1.023874,0.0045 -2.172305,0.379517 -3.106817,0.706154 -0.713829,0.249502 -1.374486,0.587043 -1.750828,0.987563 -0.383854,0.40852 -0.175404,0.972092 0.169362,1.198014 z M 27.215359,53.618577 c 1.972187,1.25255 5.120102,-0.871048 6.937539,-1.348429 3.250305,-0.853748 4.350984,-1.643243 8.086871,-1.606569 2.084695,0.02046 5.997491,0.37542 7.909249,1.004607 2.895212,0.952856 4.935216,3.102663 7.026613,1.901049 0.765335,-0.439724 1.925106,-1.699656 0.601235,-2.51849 -1.338958,-0.828165 -3.906356,-1.965791 -6.396959,-2.450904 -2.855642,-0.556212 -6.159772,-1.252343 -9.204962,-1.24438 -3.256995,0.0087 -6.910212,1.146258 -9.88294,1.788428 -2.270726,0.490524 -4.372309,1.46534 -5.569472,2.252768 -1.221062,0.803146 -0.1614,1.806416 0.492826,2.22192 z m 3.724327,5.834141 c 1.481358,0.942656 3.808353,-0.725485 5.180155,-1.164899 2.453329,-0.785843 3.352562,-1.274082 6.172408,-1.240324 1.573528,0.01884 4.112744,0.461255 5.555738,1.0404 2.185306,0.877068 3.926848,2.329777 5.568829,1.374473 0.671129,-0.390464 1.555288,-1.455851 0.556031,-2.209557 -1.010648,-0.762297 -2.948518,-1.563905 -4.828425,-2.010434 -2.155439,-0.511974 -4.649393,-1.029968 -6.947905,-1.022638 -2.458378,0.0079 -5.215825,0.686786 -7.459642,1.277881 -1.713943,0.451509 -3.300217,1.062334 -4.203834,1.787132 -0.921658,0.739268 -0.227302,1.764556 0.406645,2.167966 z m 4.087958,6.168723 c 1.071564,0.635736 2.649419,-0.821867 3.549498,-1.230692 1.609701,-0.73114 1.971565,-1.147122 3.821748,-1.115714 1.032438,0.01753 2.741508,0.289581 3.688299,0.82841 1.433843,0.816014 2.709474,2.071849 3.869131,1.361521 0.552421,-0.338376 0.839693,-1.189052 0.184051,-1.89029 -0.663114,-0.709232 -1.934608,-1.455039 -3.16807,-1.870484 -1.414245,-0.476334 -3.050602,-0.958271 -4.558721,-0.95145 -1.613015,0.0074 -3.422256,0.638977 -4.894489,1.188924 -1.124568,0.420079 -2.165369,0.988384 -2.758259,1.662727 -0.604726,0.687806 -0.330147,1.662885 0.266812,2.017048 z m 56.55761,-21.461029 -43.722556,46.99697 -0.08666,-7.240904 c 0,0 5.285943,-5.926313 6.096288,-10.668105 l -7.942076,2.291244 -9.431078,11.580035 9.057538,-2.277029 c -0.02186,2.836471 -0.005,5.673171 -0.0019,8.50971 0,0 -6.786189,7.691417 -10.446428,12.822487 0,0 -12.068452,-8.045658 -16.307218,-21.353558 -6.402553,-20.101251 -5.464485,-52.648535 -5.464485,-52.648535 0,0 12.133141,-7.643091 22.3582,-11.632743 L 35.415257,32.689128 50.3214,27.52807 50.580718,15.613085 67.405707,10.44341 84.166456,15.59314 84.28049,27.528165 99.069831,32.506383 98.887864,20.754688 c 0,0 15.732376,7.642225 23.857416,11.515116 L 121.915,46.209066 c -0.50115,8.413722 -3.45028,23.834969 -3.45028,23.834969 z M 91.544324,52.075731 39.5422,109.38853 c 0,0 11.531861,7.24449 13.707043,8.44762 4.912117,2.52454 13.007736,5.87112 14.191812,5.88092 2.604146,0.0216 21.49079,-9.97861 30.242902,-15.63541 12.071883,-7.7225 19.599343,-17.998946 20.177923,-32.213768 z m 1.15478,25.631318 h 6.282756 l 0.04592,6.171583 -6.236829,0.04446 z m -8.43764,0.08901 h 6.329161 l -0.04592,6.171583 -6.283238,0.04446 z m 8.644173,8.592121 6.099072,0.04446 0.04592,5.860844 -6.190914,0.08892 z m -8.621321,8.4e-5 6.375079,0.04446 v 5.860374 l -6.283239,0.04446 z" /></g></svg>
