<svg width="589" height="500" viewBox="0 0 589 500" fill="none" xmlns="http://www.w3.org/2000/svg">
<g clip-path="url(#clip0_62_336)">
<path d="M568.387 209.325C538.931 247.023 483.351 255.655 437.363 242.525C422.316 238.124 407.799 232.076 394.076 224.491C386.106 220.158 378.326 215.407 370.704 210.343C368.829 209.102 366.954 207.843 365.098 206.558C363.833 205.693 362.572 204.817 361.316 203.931C345.577 192.849 330.456 180.693 315.588 168.606C278.473 138.434 240.342 107.333 194.741 92.9374C185.347 89.973 173.193 88.5862 167.383 96.5506C162.343 103.465 165.419 113.256 169.685 120.673C185.506 148.148 214.223 165.495 242.967 178.835C271.71 192.175 302.157 202.983 327.144 222.487C352.131 241.991 371.206 272.99 366.096 304.281C361.691 331.247 339.691 353.156 314.113 362.704C288.536 372.246 260.008 370.917 233.42 364.721C206.831 358.518 181.59 347.698 155.929 338.372C140.458 332.742 120.232 328.849 109.966 341.731C101.297 352.615 106.28 369.784 116.838 378.843C127.396 387.902 141.685 390.936 155.319 393.659C197.652 402.119 239.986 410.578 282.319 419.034C295.305 421.623 308.596 424.333 319.91 431.229C331.225 438.118 340.353 450.154 340.029 463.405C339.704 476.465 330.151 488.004 318.442 493.787C306.74 499.563 293.226 500.453 280.19 499.83C231.335 497.489 91.2726 419.81 57.6793 409.88C36.0931 403.506 12.4921 394.142 3.3896 373.544C-7.94383 347.901 10.7059 316.877 36.163 305.165C61.6138 293.448 91.12 296.043 118.859 299.987C146.598 303.931 175.253 308.951 202.255 301.457C229.256 293.963 253.995 269.535 251.332 241.622C249.012 217.334 227.152 199.032 204.148 190.966C186.141 184.649 166.983 182.932 148.067 180.088C142.816 179.306 137.585 178.428 132.405 177.346C119.138 174.565 106.196 170.407 93.7898 164.942C80.7709 159.219 68.4027 152.115 56.8975 143.752C47.721 137.092 39.1453 129.64 31.2688 121.481C30.0674 120.234 28.8787 118.96 27.7027 117.658C26.5841 116.411 25.478 115.139 24.3976 113.841C10.3372 97.0277 -0.0492489 76.3215 3.06561 54.9855C6.17364 33.7067 22.7449 15.9902 42.475 7.47872C53.8782 2.56137 66.1778 0.360336 78.6298 0.042267C87.7348 -0.139845 96.8372 0.516016 105.822 2.00157C147.399 8.65557 185.499 28.872 221.483 50.7615C257.459 72.651 292.521 96.6779 331.632 112.282C370.742 127.893 415.262 134.503 454.939 120.387C494.615 106.277 527.21 67.7782 525.271 25.685C551.587 48.3633 573.948 76.8686 583.852 110.177C593.755 143.485 589.776 181.946 568.387 209.325Z" fill="#3F3D56"/>
<path d="M378.782 165.823C381.337 165.823 383.408 163.75 383.408 161.193C383.408 158.636 381.337 156.564 378.782 156.564C376.227 156.564 374.156 158.636 374.156 161.193C374.156 163.75 376.227 165.823 378.782 165.823Z" fill="#01A013"/>
<path d="M542.14 107.282C546.09 107.282 549.293 104.077 549.293 100.124C549.293 96.171 546.09 92.9663 542.14 92.9663C538.19 92.9663 534.988 96.171 534.988 100.124C534.988 104.077 538.19 107.282 542.14 107.282Z" fill="#FF6584"/>
<path d="M73.0411 327.961C74.5006 327.961 75.6837 326.777 75.6837 325.317C75.6837 323.856 74.5006 322.672 73.0411 322.672C71.5816 322.672 70.3984 323.856 70.3984 325.317C70.3984 326.777 71.5816 327.961 73.0411 327.961Z" fill="#FF6584"/>
<path d="M148.893 173.281C148.895 175.575 148.617 177.861 148.067 180.088C142.816 179.306 137.585 178.428 132.405 177.346C119.138 174.565 106.196 170.407 93.79 164.942C95.7851 158.495 100.024 152.978 105.736 149.392C111.449 145.806 118.257 144.389 124.925 145.399C131.592 146.408 137.677 149.776 142.075 154.892C146.473 160.008 148.892 166.533 148.893 173.281Z" fill="#FF6584"/>
<path d="M496.375 149.267C497.867 149.267 499.077 148.056 499.077 146.562C499.077 145.068 497.867 143.857 496.375 143.857C494.882 143.857 493.672 145.068 493.672 146.562C493.672 148.056 494.882 149.267 496.375 149.267Z" fill="#F0F0F0"/>
<path d="M249.112 446.979C250.605 446.979 251.815 445.768 251.815 444.274C251.815 442.781 250.605 441.57 249.112 441.57C247.619 441.57 246.409 442.781 246.409 444.274C246.409 445.768 247.619 446.979 249.112 446.979Z" fill="#F0F0F0"/>
<path d="M287.886 484.511C289.379 484.511 290.589 483.3 290.589 481.806C290.589 480.313 289.379 479.102 287.886 479.102C286.394 479.102 285.184 480.313 285.184 481.806C285.184 483.3 286.394 484.511 287.886 484.511Z" fill="#F0F0F0"/>
<path d="M48.2515 377.64C49.7442 377.64 50.9542 376.429 50.9542 374.935C50.9542 373.441 49.7442 372.23 48.2515 372.23C46.7589 372.23 45.5488 373.441 45.5488 374.935C45.5488 376.429 46.7589 377.64 48.2515 377.64Z" fill="#F0F0F0"/>
<path d="M181.099 327.385C182.592 327.385 183.802 326.174 183.802 324.68C183.802 323.187 182.592 321.976 181.099 321.976C179.607 321.976 178.396 323.187 178.396 324.68C178.396 326.174 179.607 327.385 181.099 327.385Z" fill="#F0F0F0"/>
<path d="M167.751 58.9354C169.243 58.9354 170.453 57.7244 170.453 56.2306C170.453 54.7368 169.243 53.5258 167.751 53.5258C166.258 53.5258 165.048 54.7368 165.048 56.2306C165.048 57.7244 166.258 58.9354 167.751 58.9354Z" fill="#F0F0F0"/>
<path d="M331.109 270.769C332.602 270.769 333.812 269.558 333.812 268.064C333.812 266.57 332.602 265.359 331.109 265.359C329.616 265.359 328.406 266.57 328.406 268.064C328.406 269.558 329.616 270.769 331.109 270.769Z" fill="#F0F0F0"/>
<path d="M351.45 317.843C352.942 317.843 354.152 316.632 354.152 315.138C354.152 313.645 352.942 312.434 351.45 312.434C349.957 312.434 348.747 313.645 348.747 315.138C348.747 316.632 349.957 317.843 351.45 317.843Z" fill="#F0F0F0"/>
<path d="M107.831 64.8645C107.851 78.5215 104.627 91.9876 98.4238 104.152C97.6038 105.755 96.7351 107.331 95.8176 108.879C86.7343 124.23 73.1442 136.407 56.8977 143.752C47.7212 137.092 39.1455 129.639 31.269 121.481C30.0676 120.234 28.8789 118.959 27.7029 117.658C26.5843 116.411 25.4782 115.138 24.3978 113.841C10.3375 97.0276 -0.0490284 76.3213 3.06583 54.9853C6.17386 33.7065 22.7451 15.99 42.4752 7.47852C53.8785 2.56118 66.178 0.360183 78.63 0.0421143C88.3663 8.64718 96.0418 19.3356 101.087 31.3146C101.723 32.8223 102.307 34.349 102.86 35.8948C106.159 45.1962 107.841 54.9946 107.831 64.8645Z" fill="#01A013"/>
<path d="M147.24 69.3175C147.24 82.5683 134.311 94.8585 110.831 103.936C106.134 105.755 101.106 107.403 95.8173 108.879C76.0236 114.401 52.4669 117.46 27.7026 117.658C26.584 116.411 25.4779 115.139 24.3975 113.841C24.6644 113.847 24.9313 113.847 25.1982 113.847C52.092 113.847 77.6064 110.437 98.4235 104.152C102.269 102.988 105.956 101.729 109.458 100.374C131.044 92.034 143.426 80.7108 143.426 69.3175C143.426 57.9243 131.044 46.6074 109.458 38.2613C107.322 37.4343 105.123 36.6455 102.86 35.8949C102.307 34.3491 101.722 32.8223 101.087 31.3147C104.468 32.3707 107.716 33.4988 110.831 34.6989C134.311 43.7766 147.24 56.0732 147.24 69.3175Z" fill="#E4E4E4"/>
<path d="M29.1822 22.0394C30.6749 22.0394 31.8849 20.8284 31.8849 19.3346C31.8849 17.8408 30.6749 16.6298 29.1822 16.6298C27.6895 16.6298 26.4795 17.8408 26.4795 19.3346C26.4795 20.8284 27.6895 22.0394 29.1822 22.0394Z" fill="#F0F0F0"/>
<path d="M85.7545 39.2151C87.2471 39.2151 88.4572 38.0041 88.4572 36.5103C88.4572 35.0164 87.2471 33.8054 85.7545 33.8054C84.2618 33.8054 83.0518 35.0164 83.0518 36.5103C83.0518 38.0041 84.2618 39.2151 85.7545 39.2151Z" fill="#F0F0F0"/>
<path d="M56.5149 90.1675C71.0304 90.1675 82.7974 78.3911 82.7974 63.8642C82.7974 49.3373 71.0304 37.5609 56.5149 37.5609C41.9995 37.5609 30.2324 49.3373 30.2324 63.8642C30.2324 78.3911 41.9995 90.1675 56.5149 90.1675Z" fill="#F0F0F0"/>
<path opacity="0.3" d="M541.887 203.078C535.988 204.821 522.983 206.106 508.681 206.895C494.386 207.677 478.705 208.021 463.22 208.352C436.117 208.937 409.016 209.524 381.917 210.114C378.191 210.197 374.454 210.273 370.704 210.343C368.829 209.102 366.954 207.843 365.098 206.558C368.422 206.577 371.746 206.558 375.045 206.494C389.137 206.214 401.068 205.114 414.658 204.592C435.57 203.784 458.148 204.42 479.944 204.745C501.74 205.076 526.574 204.955 541.887 203.078Z" fill="#F0F0F0"/>
<path opacity="0.3" d="M125.909 403.608L39.5127 331.578L123.445 406.493C123.608 406.767 123.833 406.999 124.103 407.168C124.372 407.337 124.679 407.44 124.996 407.467C125.313 407.494 125.632 407.446 125.927 407.325C126.221 407.204 126.483 407.015 126.69 406.772C126.897 406.53 127.043 406.242 127.116 405.932C127.19 405.622 127.188 405.299 127.112 404.989C127.035 404.68 126.886 404.393 126.677 404.153C126.468 403.913 126.205 403.726 125.909 403.608H125.909Z" fill="#F0F0F0"/>
<path d="M60.3287 130.819C61.8213 130.819 63.0314 129.608 63.0314 128.114C63.0314 126.62 61.8213 125.409 60.3287 125.409C58.836 125.409 57.626 126.62 57.626 128.114C57.626 129.608 58.836 130.819 60.3287 130.819Z" fill="#F0F0F0"/>
<path d="M287.318 441.526L298.497 441.526L303.816 398.372L287.316 398.373L287.318 441.526Z" fill="#FFB6B6"/>
<path d="M284.466 437.874L287.612 437.873L299.897 432.874L306.481 437.873H306.482C310.203 437.873 313.772 439.352 316.403 441.985C319.034 444.618 320.512 448.19 320.512 451.914V452.37L284.466 452.371L284.466 437.874Z" fill="#2F2E41"/>
<path d="M203.599 441.526L192.42 441.526L187.102 398.372L203.601 398.373L203.599 441.526Z" fill="#FFB6B6"/>
<path d="M206.45 452.371L170.404 452.37V451.914C170.405 448.19 171.883 444.618 174.514 441.985C177.145 439.352 180.713 437.873 184.434 437.873H184.435L191.02 432.874L203.304 437.873L206.451 437.874L206.45 452.371Z" fill="#2F2E41"/>
<path d="M243.655 110.807L232.336 119.434L202.267 127.403C202.267 127.403 213.041 203.078 207.956 208.167C202.871 213.256 207.457 213.393 206.435 220.004C205.414 226.615 201.342 244.07 201.342 244.07H291.086C291.086 244.07 291.809 233.222 287.385 230.873C282.961 228.524 291.463 217.559 287.848 215.726C284.232 213.892 289.317 197.989 289.317 197.989L300.338 145.921L271.026 122.97L266.568 112.221L243.655 110.807Z" fill="#01A013"/>
<path d="M257.779 178.43C259.942 178.43 261.695 176.675 261.695 174.511C261.695 172.346 259.942 170.591 257.779 170.591C255.616 170.591 253.862 172.346 253.862 174.511C253.862 176.675 255.616 178.43 257.779 178.43Z" fill="#F2F2F2"/>
<path d="M201.341 244.07L197.64 339.44C197.64 339.44 181.662 409.879 184.437 411.731C187.213 413.583 188.389 424.625 188.389 424.625L204.117 426.477C204.117 426.477 204.117 419.07 207.818 416.292C211.518 413.514 245.751 282.958 245.751 282.958L279.147 409.187C279.147 409.187 279.983 416.292 282.758 416.292C285.534 416.292 286.459 426.477 286.459 426.477H302.188V416.292C302.188 416.292 309.255 414.049 306.479 406.642C303.703 399.235 291.085 244.07 291.085 244.07H201.341Z" fill="#2F2E41"/>
<path d="M255.409 105.124C265.884 105.124 274.375 96.6259 274.375 86.1427C274.375 75.6595 265.884 67.1613 255.409 67.1613C244.934 67.1613 236.442 75.6595 236.442 86.1427C236.442 96.6259 244.934 105.124 255.409 105.124Z" fill="#FFB6B6"/>
<path opacity="0.1" d="M287.848 171.384L291.548 174.162L293.399 161.199L287.848 171.384Z" fill="black"/>
<path d="M204.041 127.329C204.041 127.329 199.415 126.403 196.639 134.737C193.864 143.07 183.687 174.552 183.687 180.107C183.687 185.663 247.066 210.175 247.066 210.175L240.471 187.022L211.442 171.774L204.041 127.329Z" fill="#01A013"/>
<path d="M250.006 206.743C255.974 206.743 260.812 201.901 260.812 195.928C260.812 189.956 255.974 185.114 250.006 185.114C244.038 185.114 239.2 189.956 239.2 195.928C239.2 201.901 244.038 206.743 250.006 206.743Z" fill="#FFB6B6"/>
<path opacity="0.1" d="M210.596 160.305L211.442 171.774L238.285 185.874L214.41 169.847L210.596 160.305Z" fill="black"/>
<path d="M275.128 161.94H274.779V152.392C274.779 151.667 274.637 150.948 274.359 150.278C274.082 149.607 273.675 148.998 273.162 148.485C272.65 147.972 272.041 147.565 271.371 147.287C270.701 147.01 269.983 146.867 269.258 146.867H249.047C248.322 146.867 247.604 147.01 246.934 147.287C246.264 147.565 245.655 147.972 245.143 148.485C244.63 148.998 244.223 149.607 243.946 150.278C243.668 150.948 243.525 151.667 243.525 152.392V204.77C243.525 205.495 243.668 206.214 243.946 206.884C244.223 207.555 244.63 208.164 245.143 208.677C245.655 209.19 246.264 209.597 246.934 209.875C247.604 210.153 248.322 210.296 249.047 210.296H269.258C269.983 210.296 270.701 210.153 271.371 209.875C272.041 209.597 272.65 209.19 273.162 208.677C273.675 208.164 274.082 207.555 274.359 206.884C274.637 206.214 274.779 205.495 274.779 204.77V168.736H275.128V161.94Z" fill="#F0F0F0"/>
<path d="M300.338 145.922C300.338 145.922 303.113 147.773 304.964 156.107C306.814 164.44 318.842 195.922 314.216 203.329C309.59 210.736 308.224 218.642 292.496 207.531L270.731 187.588L286.46 172.773L292.936 177.403L300.338 145.922Z" fill="#01A013"/>
<path d="M259.399 170.211C261.954 170.211 264.025 168.139 264.025 165.582C264.025 163.025 261.954 160.952 259.399 160.952C256.845 160.952 254.773 163.025 254.773 165.582C254.773 168.139 256.845 170.211 259.399 170.211Z" fill="#01A013"/>
<path d="M272.791 186.539C278.759 186.539 283.597 181.697 283.597 175.724C283.597 169.752 278.759 164.91 272.791 164.91C266.823 164.91 261.985 169.752 261.985 175.724C261.985 181.697 266.823 186.539 272.791 186.539Z" fill="#FFB6B6"/>
<path opacity="0.1" d="M210.087 194.919L241.107 208.651L209.225 202.415L210.087 194.919Z" fill="black"/>
<path d="M236.274 89.9254L233.67 80.0069C232.991 77.4189 232.305 74.7786 232.458 72.1071C232.611 69.4357 233.743 66.6789 235.992 65.2317C238.241 63.7844 241.674 64.1263 243.121 66.3763C243.396 62.7836 246.662 60.0201 250.127 59.0411C253.592 58.0621 257.27 58.4492 260.867 58.6144C264.464 58.7796 268.26 58.6643 271.364 56.8387C271.601 57.549 271.585 58.3193 271.32 59.0194C271.055 59.7196 270.557 60.3068 269.909 60.6818C270.681 60.8926 271.504 60.802 272.211 60.4286C272.919 60.0552 273.458 59.4267 273.72 58.6704C273.744 60.7511 272.975 62.7628 271.571 64.2972C272.91 63.6321 274.449 63.4896 275.888 63.8973C277.327 64.305 278.562 65.2339 279.355 66.5031C280.939 69.2516 280.051 72.7035 279.124 75.7379L274.368 91.3121C273.646 88.9446 273.51 86.445 273.124 84.0002C272.738 81.5554 272.052 79.0586 270.439 77.182C268.826 75.3053 266.087 74.2185 263.796 75.1503C262.51 75.6731 261.53 76.7337 260.37 77.4949C257.988 79.0568 254.959 79.2808 252.13 78.963C249.3 78.6451 246.543 77.8388 243.714 77.5167C241.943 77.3151 239.966 77.3685 238.63 78.5492C237.71 79.505 237.103 80.718 236.889 82.0271C236.258 84.6365 236.01 87.3239 236.153 90.0047" fill="#2F2E41"/>
</g>
<defs>
<clipPath id="clip0_62_336">
<rect width="589" height="500" fill="white"/>
</clipPath>
</defs>
</svg>
