<svg width="452" height="342" viewBox="0 0 452 342" fill="none" xmlns="http://www.w3.org/2000/svg">
<g clip-path="url(#clip0_62_403)">
<path d="M294.68 140.34C293.693 140.482 292.686 140.407 291.731 140.118C290.776 139.829 289.895 139.334 289.152 138.669C288.408 138.003 287.82 137.182 287.427 136.264C287.035 135.345 286.849 134.352 286.881 133.354L264.239 124.646L274.491 117.307L294.42 126.702C296.092 126.868 297.645 127.642 298.785 128.877C299.925 130.113 300.572 131.724 300.604 133.405C300.636 135.087 300.051 136.721 298.959 138C297.867 139.278 296.344 140.111 294.679 140.34L294.68 140.34Z" fill="#FFB7B7"/>
<path d="M281.742 134.093L285.277 121.613L285.103 121.494L251.989 98.981L223.363 70.2354L206.688 76.9029L207.783 82.185L207.855 82.2498L245.914 116.366L245.949 116.384L281.742 134.093Z" fill="#E6E7E8"/>
<path d="M247.818 162.6L196.569 155.41L201.08 123.938H238.81L247.818 162.6Z" fill="#FFB6B6"/>
<path d="M160.738 316.709L171.251 319.154L185.677 279.736L170.161 276.128L160.738 316.709Z" fill="#FFB6B6"/>
<path d="M150.957 333.649L158.496 335.402L161.496 328.591L163.288 336.516L183.284 341.167C184.242 341.39 185.247 341.3 186.151 340.911C187.055 340.523 187.811 339.855 188.309 339.005C188.807 338.156 189.02 337.169 188.918 336.19C188.816 335.21 188.404 334.289 187.742 333.561L174.337 318.81L176.009 311.609L158.981 308.706L150.957 333.649Z" fill="#2F2E41"/>
<path d="M225.605 322.572H236.398L241.534 280.909H225.605V322.572Z" fill="#FFB6B6"/>
<path d="M219.909 341.288H227.649L229.031 333.974L232.569 341.288H253.097C254.081 341.288 255.04 340.973 255.832 340.39C256.625 339.806 257.21 338.984 257.503 338.044C257.796 337.104 257.781 336.094 257.46 335.164C257.139 334.233 256.529 333.429 255.719 332.869L239.326 321.538V314.145L222.083 315.175L219.909 341.288Z" fill="#2F2E41"/>
<path d="M195.922 150.07L246.041 146.08C260.831 180.656 251.427 235.853 240.061 297.989L223.941 300.075L222.69 200.229L182.279 293.115L165.478 292.256L195.922 150.07Z" fill="#2F2E41"/>
<path d="M225.095 59.0207V42.0509C225.097 39.0638 224.51 36.1057 223.369 33.3455C222.228 30.5854 220.555 28.0773 218.445 25.9645C216.335 23.8518 213.83 22.1758 211.072 21.0324C208.315 19.8889 205.359 19.3004 202.375 19.3004C199.39 19.3004 196.435 19.8889 193.677 21.0324C190.92 22.1758 188.415 23.8518 186.305 25.9645C184.195 28.0773 182.521 30.5854 181.38 33.3455C180.239 36.1057 179.652 39.0638 179.654 42.0509C175.649 50.4024 178.155 54.3731 179.654 59.0207C179.655 59.8301 179.977 60.6059 180.549 61.1781C181.121 61.7504 181.896 62.0725 182.705 62.0738H222.043C222.852 62.0729 223.628 61.751 224.2 61.1786C224.772 60.6063 225.094 59.8303 225.095 59.0207Z" fill="#2F2E41"/>
<path d="M207.981 61.818C217.182 61.818 224.64 54.3538 224.64 45.1462C224.64 35.9387 217.182 28.4745 207.981 28.4745C198.781 28.4745 191.323 35.9387 191.323 45.1462C191.323 54.3538 198.781 61.818 207.981 61.818Z" fill="#FFB7B7"/>
<path d="M230.47 43.4081C230.465 38.6392 228.569 34.0671 225.2 30.6949C221.831 27.3228 217.262 25.426 212.497 25.4206H209.106C204.341 25.426 199.772 27.3228 196.403 30.695C193.033 34.0671 191.138 38.6392 191.133 43.4081V43.7476C193.673 45.4854 196.084 45.7395 198.3 43.7476L200.744 36.8976L201.233 43.7476H204.937L206.172 40.2917L206.419 43.7476C211.422 48.0122 220.884 45.9686 230.47 43.7476L230.47 43.4081Z" fill="#2F2E41"/>
<path d="M198.268 133.136L240.681 131.521L243.052 103.752C244.88 98.669 244.91 94.3015 243.14 90.7802C241.617 87.8858 239.059 85.6731 235.977 84.5845L226.697 73.3663C225.503 71.9244 224.004 70.766 222.308 69.9747C220.612 69.1835 218.762 68.7791 216.891 68.7909L192.776 68.9559C192.195 68.6062 188.669 66.8128 181.716 69.8282C174.174 73.0995 175.925 84.4645 175.944 84.5786L175.961 84.6855L176.044 84.7582L192.084 98.2794L198.268 133.136Z" fill="#E6E7E8"/>
<path d="M0.7116 342H426.573C426.762 342 426.943 341.925 427.076 341.791C427.21 341.658 427.285 341.477 427.285 341.288C427.285 341.099 427.21 340.918 427.076 340.784C426.943 340.651 426.762 340.576 426.573 340.576H0.7116C0.522873 340.576 0.341878 340.651 0.208428 340.784C0.074978 340.918 0 341.099 0 341.288C0 341.477 0.074978 341.658 0.208428 341.791C0.341878 341.925 0.522873 342 0.7116 342Z" fill="#CCCCCC"/>
<path d="M310.788 173.442C310.756 189.62 304.679 205.2 293.751 217.12C282.823 229.041 267.835 236.439 251.733 237.86C235.632 239.281 219.581 234.623 206.737 224.801C193.893 214.978 185.185 200.703 182.325 184.781C179.464 168.859 182.659 152.442 191.28 138.758C199.901 125.073 213.325 115.111 228.913 110.83C244.5 106.549 261.125 108.259 275.517 115.623C289.91 122.987 301.029 135.473 306.689 150.626C306.83 151.006 306.968 151.387 307.102 151.771V151.775C307.699 153.463 308.226 155.184 308.681 156.935C310.084 162.325 310.793 167.873 310.788 173.442Z" fill="#3F3D56"/>
<path d="M238.478 129.431C235.549 127.846 232.297 126.951 228.97 126.815C225.642 126.679 222.328 127.305 219.279 128.645C216.595 129.814 213.769 131.912 212.873 135.699C216.495 133.56 221.183 136.94 222.115 142.362L221.897 142.422C221.405 146.177 222.504 150.266 224.631 152.595C224.79 151.544 225.18 150.542 225.773 149.661C226.367 148.78 227.149 148.042 228.063 147.501C229.626 146.473 231.355 145.726 232.548 143.958C233.963 141.863 234.322 138.8 234.884 136.007C235.445 133.213 236.511 130.21 238.478 129.431Z" fill="#01A013"/>
<path d="M218.205 161.389C217.202 162.897 215.862 163.843 214.66 165.02C213.272 166.284 212.361 167.987 212.081 169.844C211.929 171.156 212.165 172.489 212.132 173.816C212.1 175.142 211.658 176.635 210.756 176.965C209.333 177.48 208.247 174.834 206.784 174.649C205.621 174.504 204.575 176.334 204.912 177.922C205.248 179.509 206.831 180.212 207.74 179.176C208.562 180.556 207.982 183.061 206.748 183.484C206.617 184.354 206.487 185.22 206.36 186.09C203.239 183.905 200.085 181.683 197.431 178.483C194.479 174.955 192.648 170.623 192.173 166.046C191.829 162.368 192.339 158.16 190.652 155.33C189.301 153.065 186.984 152.565 184.898 152.706C184.518 152.731 184.134 152.775 183.754 152.822C184.984 149.125 186.546 145.546 188.421 142.131C188.846 141.949 189.24 141.703 189.591 141.403C191.532 139.754 192.394 136.416 193.969 134.108C194.07 133.959 194.175 133.814 194.284 133.673C195.895 131.567 198.053 130.484 200.139 129.476C204.756 127.233 209.507 124.961 214.381 125.272L212.994 125.406C211.375 129.944 209.755 134.481 208.134 139.018C207.888 139.714 207.639 140.411 207.388 141.109C206.469 143.689 205.52 146.436 205.661 149.325C205.745 151.035 206.338 152.862 207.468 153.449C208.522 153.992 209.673 153.326 210.691 152.666C211.122 152.391 211.549 152.115 211.98 151.836C213.526 150.84 215.239 149.818 216.872 150.484C218.368 151.093 219.472 153.126 219.682 155.319C219.875 157.45 219.355 159.585 218.205 161.389Z" fill="#01A013"/>
<path d="M227.401 192.366C222.885 189.583 218.369 186.8 213.853 184.018L213.93 183.82C211.122 184.89 209.956 189.885 210.42 193.97C210.884 198.055 212.458 201.706 213.253 205.687C214.324 211.133 213.92 216.768 212.081 222.005C218.019 215.337 223.274 208.09 227.767 200.372C228.395 199.4 228.874 198.338 229.186 197.223C229.518 196.035 229.4 194.767 228.855 193.661C228.485 193.115 227.985 192.67 227.401 192.366Z" fill="#01A013"/>
<path d="M209.578 141.74C209.048 142.88 208.966 144.178 209.349 145.375C209.795 146.339 210.603 147.088 211.598 147.459L214.093 148.697C214.923 149.109 215.818 149.525 216.664 149.186C217.685 148.777 218.393 147.176 218.21 145.689C218.015 144.107 217.018 143.019 216.097 142.092C214.807 140.795 213.518 139.499 212.228 138.202L211.501 139.093C210.715 139.86 210.065 140.755 209.578 141.74Z" fill="#01A013"/>
<path d="M297.412 158.653C298.534 158.917 299.657 159.182 300.78 159.447C300.584 163.241 298.705 166.753 296.184 168.025C295.134 168.554 293.965 168.749 293.096 169.739C292.31 170.637 291.912 172.036 291.546 173.374C290.905 175.707 290.264 178.041 289.623 180.375C288.935 182.89 288.052 185.684 286.263 186.59C284.727 187.369 282.971 186.416 281.791 184.818C280.61 183.22 279.89 181.071 279.191 178.976C279.234 181.259 278.173 183.499 276.671 184.293C275.164 185.086 273.332 184.369 272.325 182.597C271.601 181.325 271.301 179.647 270.591 178.357C269.881 177.066 268.393 176.327 267.618 177.538C267.107 178.342 267.173 179.574 266.919 180.596C266.791 181.275 266.456 181.896 265.959 182.375C265.462 182.854 264.828 183.166 264.145 183.267C263.518 183.253 262.9 183.111 262.329 182.85C261.758 182.589 261.246 182.214 260.825 181.749C258.607 179.478 257.164 176.565 256.7 173.424C256.386 171.919 256.426 170.36 256.816 168.873C257.262 167.463 258.337 166.376 259.405 166.644C260.108 165.158 258.721 163.187 257.472 163.361C256.219 163.534 255.238 164.879 254.209 165.912C253.184 166.945 251.751 167.695 250.719 166.669C250.742 167.044 250.615 167.413 250.366 167.695C250.117 167.976 249.767 168.148 249.392 168.171C249.355 168.173 249.318 168.174 249.281 168.173C248.595 167.976 247.957 167.638 247.409 167.18C245.044 165.705 242.042 166.684 240.362 169.474C241.412 165.002 242.951 159.871 246.178 158.82C247.496 158.388 248.933 158.744 250.179 157.997C252.384 156.674 252.83 151.677 250.925 149.615C251.167 151.564 251.12 153.84 250.092 155.174C249.064 156.508 246.906 155.638 247.036 153.666C247.007 153.944 246.89 154.205 246.704 154.412C246.517 154.619 246.27 154.762 245.998 154.819C245.725 154.877 245.441 154.848 245.187 154.734C244.932 154.621 244.72 154.43 244.581 154.188C243.897 153.145 243.954 151.438 244.44 150.191C244.94 149.062 245.657 148.042 246.551 147.19C248.271 145.346 250.016 143.479 252.008 142.32C254.003 141.16 256.306 140.769 258.305 141.921C259.359 142.53 260.285 143.545 261.361 144.081C261.614 144.238 261.895 144.343 262.188 144.392C262.482 144.44 262.782 144.43 263.071 144.362C263.361 144.294 263.634 144.17 263.876 143.996C264.118 143.822 264.323 143.603 264.479 143.35C264.491 143.33 264.503 143.311 264.515 143.291C265.315 141.885 264.938 139.797 265.235 138.04C265.768 134.934 268.871 133.481 270.591 135.532C269.305 135.202 267.977 136.724 267.817 138.569C267.654 140.413 268.585 142.276 269.83 142.834C271.923 143.762 273.973 141.428 275.555 139.268C277.207 137.007 278.86 134.747 280.516 132.488C280.781 132.103 281.077 131.742 281.403 131.408C281.922 130.902 282.613 130.612 283.338 130.597C284.062 130.583 284.764 130.844 285.303 131.328C286.976 132.694 287.762 135.496 289.134 137.424C291.126 140.225 294.106 140.906 296.88 141.45C298.947 141.852 301.016 142.257 303.086 142.664C304.466 145.233 305.67 147.893 306.689 150.626C302.893 152.358 299.673 155.144 297.412 158.653Z" fill="#01A013"/>
<path d="M308.68 156.935C308.256 158.187 308.024 159.495 307.992 160.816C306.218 158.649 305.936 154.587 307.102 151.775C307.699 153.463 308.225 155.184 308.68 156.935Z" fill="#01A013"/>
<path d="M304.096 202.257C302.545 205.409 300.741 208.431 298.701 211.291C297.397 210.733 295.996 211.73 294.776 212.665C293.501 213.643 291.969 214.596 290.662 213.705C289.326 212.792 288.895 210.237 289.319 208.211C289.806 206.342 290.657 204.588 291.825 203.05C292.911 201.427 294.073 199.742 295.583 199.111C297.097 198.48 299.041 199.372 299.483 201.525L300.555 201.488C299.954 200.662 300.269 198.952 301.076 198.651C302.007 198.299 302.815 199.579 303.365 200.709C303.611 201.22 303.861 201.735 304.096 202.257Z" fill="#01A013"/>
<path d="M263.046 186.949C260.742 187.094 258.917 184.256 257.705 181.463C256.492 178.671 255.386 175.478 253.307 174.056C252.119 173.244 250.765 173.133 249.476 172.739C248.746 172.555 248.069 172.198 247.504 171.7C246.938 171.201 246.499 170.575 246.224 169.873L244.762 169.282C242.718 170.305 240.846 171.641 239.214 173.242C237.348 175.225 236.187 177.767 235.907 180.476C235.628 183.403 236.659 186.668 238.585 187.767C240.107 188.636 241.879 188.089 243.421 188.884C245.347 189.878 246.491 192.765 246.924 195.616C247.357 198.467 247.247 201.43 247.557 204.313C247.866 207.196 248.72 210.196 250.486 211.674C252.697 213.522 255.941 211.986 256.932 208.62C257.419 206.97 257.402 205.107 257.766 203.393C258.407 200.375 260.136 198.136 261.507 195.66C262.878 193.185 263.958 189.822 263.046 186.949Z" fill="#01A013"/>
<path d="M240.281 157.294C240.496 157.492 240.696 157.705 240.881 157.931C241.072 158.261 241.17 158.636 241.163 159.017C241.157 159.399 241.046 159.771 240.844 160.094C241.122 160.078 241.393 160.005 241.641 159.879C241.889 159.752 242.107 159.576 242.284 159.361C242.704 158.882 243.074 158.361 243.388 157.805C243.535 157.615 243.64 157.396 243.696 157.162C243.752 156.928 243.758 156.684 243.713 156.448C243.604 156.137 243.347 156.004 243.166 155.771C242.916 155.314 242.746 154.817 242.662 154.303C242.561 153.821 242.329 153.376 241.991 153.019C241.652 152.662 241.22 152.406 240.745 152.281L240.86 152.303C240.664 152.42 240.509 152.595 240.417 152.805C240.325 153.014 240.3 153.247 240.347 153.471C240.417 153.923 240.707 154.299 240.679 154.76C240.637 155.423 239.975 155.734 239.934 156.398C239.927 156.73 240.052 157.052 240.281 157.294Z" fill="#01A013"/>
<path d="M236.334 146.023L236.344 146.021C236.415 145.956 236.481 145.886 236.541 145.811L236.334 146.023Z" fill="#01A013"/>
<path d="M237.024 149.136C237.301 148.893 237.505 148.579 237.616 148.227C237.726 147.876 237.738 147.501 237.649 147.143C237.482 146.389 236.89 145.882 236.343 146.021C236.185 146.182 235.988 146.3 235.772 146.363C235.555 146.427 235.326 146.435 235.106 146.386C234.768 146.299 234.397 146.074 234.104 146.329C233.936 146.519 233.819 146.749 233.763 146.996C233.654 147.329 233.546 147.662 233.437 147.995C233.386 148.115 233.373 148.247 233.399 148.374C233.42 148.425 233.453 148.47 233.496 148.504C233.539 148.538 233.591 148.561 233.645 148.57C234.295 148.762 234.946 148.954 235.597 149.145C235.821 149.249 236.065 149.301 236.311 149.3C236.558 149.298 236.801 149.242 237.024 149.136Z" fill="#01A013"/>
<path d="M286.141 192.116C285.84 191.624 285.539 191.131 285.238 190.638C284.943 190.067 284.539 189.56 284.05 189.144C283.944 189.055 283.821 188.988 283.689 188.946C283.557 188.905 283.418 188.89 283.28 188.902C283.143 188.914 283.008 188.953 282.886 189.017C282.763 189.081 282.654 189.169 282.566 189.275L282.55 189.294L282.586 189.576C283.392 190.44 283.941 191.511 284.171 192.67C284.24 193.174 284.216 193.695 284.276 194.201C284.282 194.435 284.335 194.666 284.43 194.881C284.526 195.095 284.663 195.288 284.833 195.449C285.307 195.766 285.863 195.299 286.2 194.729C286.501 194.262 286.636 193.706 286.584 193.152C286.508 192.78 286.358 192.427 286.141 192.116Z" fill="#01A013"/>
<path d="M290.859 192.758C290.916 192.296 290.878 191.828 290.748 191.382C290.727 190.778 290.887 190.181 291.208 189.669C291.526 189.187 291.768 188.657 291.923 188.099C291.989 187.845 291.977 187.578 291.889 187.331C291.789 187.107 291.548 187.005 291.41 187.182L291.706 187.373C291.306 187.301 290.896 187.321 290.505 187.431C290.282 187.516 290.083 187.654 289.924 187.833C289.766 188.012 289.653 188.226 289.594 188.458C289.546 188.819 289.466 189.176 289.356 189.524C289.179 189.887 288.837 190.008 288.623 190.326C288.476 190.609 288.402 190.924 288.407 191.242C288.413 191.56 288.497 191.872 288.653 192.15C288.922 192.604 289.351 192.941 289.856 193.097C290.217 193.226 290.693 193.233 290.859 192.758Z" fill="#01A013"/>
<path d="M299.26 195.295C299.391 195.635 299.566 195.956 299.781 196.251C300.183 196.656 300.73 196.407 301.218 196.309C301.66 196.239 302.114 196.29 302.53 196.457C302.946 196.624 303.309 196.9 303.581 197.257C303.392 196.313 302.979 195.427 302.377 194.676C301.775 193.924 301.001 193.328 300.121 192.937C298.978 192.541 297.773 192.353 296.563 192.381L296.356 192.434C296.883 193.968 298.536 193.933 299.26 195.295Z" fill="#01A013"/>
<path d="M263.676 198.432L263.679 198.439L263.739 198.323L263.676 198.432Z" fill="#01A013"/>
<path d="M262.402 200.901C262.124 201.406 261.885 201.932 261.687 202.473C261.425 203.35 261.251 204.251 261.169 205.163C261.104 205.681 261.084 206.344 261.408 206.596C261.502 206.658 261.614 206.684 261.725 206.669C261.836 206.654 261.937 206.599 262.011 206.514C262.191 206.323 262.338 206.104 262.447 205.865C263.085 204.765 263.58 203.589 263.921 202.364C264.276 201.065 264.191 199.685 263.68 198.439C263.254 199.259 262.828 200.08 262.402 200.901Z" fill="#01A013"/>
<path d="M250.106 135.12C250.309 135.318 250.565 135.452 250.843 135.507C251.12 135.561 251.408 135.533 251.67 135.425C252.213 135.188 252.71 134.859 253.142 134.453C253.499 134.188 253.801 133.858 254.034 133.479C254.161 133.252 254.243 133.003 254.275 132.745C254.306 132.487 254.286 132.225 254.216 131.974C254.116 131.734 253.957 131.524 253.753 131.363C253.55 131.201 253.308 131.095 253.052 131.053C252.33 130.838 251.608 130.624 250.886 130.41L251.408 129.939C250.871 129.65 250.276 130.186 249.94 130.849C249.725 131.282 249.574 131.745 249.494 132.222C249.38 132.721 249.376 133.238 249.481 133.738C249.587 134.239 249.8 134.71 250.106 135.12Z" fill="#01A013"/>
<path d="M262.855 130.836C263.059 131.061 263.34 131.2 263.642 131.224C263.944 131.249 264.244 131.157 264.481 130.969C264.685 130.815 264.855 130.621 264.979 130.397C265.103 130.174 265.178 129.927 265.2 129.672C265.252 129.104 264.971 128.472 264.57 128.423L264.661 127.891C263.889 127.751 262.938 127.723 262.524 128.662C262.384 129.022 262.341 129.412 262.399 129.794C262.457 130.175 262.615 130.535 262.855 130.836Z" fill="#01A013"/>
<path d="M186.741 187.801C185.999 187.134 185.412 186.312 185.022 185.393C184.631 184.474 184.446 183.481 184.481 182.483C184.515 181.485 184.767 180.507 185.22 179.617C185.673 178.727 186.315 177.948 187.101 177.333L179.269 154.358L191.471 157.53L197.032 178.86C197.977 180.251 198.379 181.941 198.163 183.609C197.946 185.276 197.125 186.807 195.856 187.909C194.586 189.012 192.957 189.61 191.277 189.59C189.596 189.57 187.981 188.934 186.738 187.802L186.741 187.801Z" fill="#FFB7B7"/>
<path d="M183.243 173.858L195.082 168.578L191.105 128.499L194.809 88.0854L179.002 79.5474L175.652 83.7739V83.8698L173.878 134.974L173.887 135.013L183.243 173.858Z" fill="#E6E7E8"/>
<path d="M364.616 293.29C357.921 290.209 350.701 286.579 342.953 282.4C302.882 260.78 253.608 227.054 204.206 187.434C154.805 147.814 111.178 107.033 81.3633 72.605C66.8397 55.8338 56.378 41.4709 50.2695 29.9151C43.802 17.6811 42.4976 9.01152 46.392 4.14766C53.9792 -5.32781 78.6879 3.20687 98.0798 12.0352L97.3712 13.5949C70.7409 1.47113 53.1106 -1.50325 47.728 5.21924C40.8722 13.7812 53.6035 37.9331 82.657 71.4828C112.406 105.835 155.953 146.54 205.277 186.097C254.6 225.654 303.783 259.319 343.766 280.892C382.812 301.959 409.14 309.132 415.995 300.57C421.687 293.461 413.923 275.556 394.133 250.153L395.483 249.1C409.863 267.558 425.326 291.657 417.331 301.641C413.437 306.505 404.698 307.12 391.359 303.469C383.755 301.387 374.806 297.98 364.616 293.29Z" fill="#01A013"/>
<path d="M108.266 177.766C89.8091 169.272 72.942 160.741 58.1689 152.393C38.8593 141.48 24.1842 131.47 14.5513 122.64C4.35261 113.292 0.213482 105.565 2.24883 99.6742C6.2133 88.1988 32.351 87.9287 53.5797 89.7228L53.4354 91.4304C24.2832 88.9663 6.67941 92.0928 3.86644 100.235C0.283804 110.604 20.3831 129.071 59.0107 150.901C98.5635 173.253 153.244 196.948 212.98 217.619C272.716 238.292 330.341 253.462 375.242 260.335C419.092 267.048 446.297 264.951 449.879 254.582C452.854 245.972 439.53 231.72 412.363 214.448L413.28 213.002C433.021 225.551 455.675 243.049 451.497 255.142C449.462 261.032 441.438 264.55 427.648 265.597C414.622 266.585 396.904 265.385 374.983 262.029C329.983 255.141 272.251 239.944 212.42 219.239C174.887 206.25 139.333 192.064 108.266 177.766Z" fill="#01A013"/>
<path d="M136.268 90.5691C141.778 90.5691 146.244 86.0988 146.244 80.5844C146.244 75.07 141.778 70.5997 136.268 70.5997C130.758 70.5997 126.291 75.07 126.291 80.5844C126.291 86.0988 130.758 90.5691 136.268 90.5691Z" fill="#E6E6E6"/>
<path d="M332.915 212.438C336.288 212.438 339.022 209.701 339.022 206.326C339.022 202.95 336.288 200.214 332.915 200.214C329.542 200.214 326.808 202.95 326.808 206.326C326.808 209.701 329.542 212.438 332.915 212.438Z" fill="#FF6584"/>
<path d="M34.2256 266.091C39.7356 266.091 44.2023 261.62 44.2023 256.106C44.2023 250.591 39.7356 246.121 34.2256 246.121C28.7157 246.121 24.249 250.591 24.249 256.106C24.249 261.62 28.7157 266.091 34.2256 266.091Z" fill="#E6E6E6"/>
</g>
<defs>
<clipPath id="clip0_62_403">
<rect width="452" height="342" fill="white"/>
</clipPath>
</defs>
</svg>
