<svg width="408" height="324" viewBox="0 0 408 324" fill="none" xmlns="http://www.w3.org/2000/svg">
<g clip-path="url(#clip0_62_384)">
<path d="M304.353 320.108C298.706 315.339 295.275 307.805 296.175 300.471C297.074 293.137 302.646 286.394 309.874 284.837C317.101 283.28 325.34 287.591 327.535 294.647C328.743 281.043 330.136 266.87 337.372 255.285C343.925 244.796 355.275 237.29 367.575 235.947C379.875 234.604 392.826 239.676 400.497 249.379C408.169 259.081 410.047 273.187 404.674 284.326C400.716 292.532 393.424 298.639 385.784 303.608C361.096 319.527 331.487 326.001 302.403 321.838" fill="#F2F2F2"/>
<path d="M388.334 239.957C378.184 248.219 368.873 257.459 360.536 267.544C347.487 283.272 336.928 300.907 329.226 319.834C328.662 321.214 330.906 321.815 331.463 320.45C344.064 289.691 364.181 262.58 389.974 241.597C391.132 240.654 389.482 239.022 388.334 239.957Z" fill="white"/>
<path d="M99.751 323.372H67.7227C66.6404 323.371 65.6029 322.941 64.8376 322.176C64.0723 321.411 63.6419 320.374 63.6406 319.293V252.765C63.6419 251.683 64.0723 250.646 64.8376 249.881C65.6029 249.116 66.6404 248.686 67.7227 248.685H99.751C100.833 248.686 101.871 249.116 102.636 249.881C103.401 250.646 103.832 251.683 103.833 252.765V319.293C103.832 320.374 103.401 321.411 102.636 322.176C101.871 322.941 100.833 323.371 99.751 323.372Z" fill="#01A013"/>
<path d="M175.739 324H143.711C142.462 323.999 141.265 323.502 140.382 322.62C139.499 321.737 139.002 320.541 139.001 319.293V190.002C139.002 188.754 139.499 187.557 140.382 186.675C141.265 185.793 142.462 185.296 143.711 185.295H175.739C176.988 185.296 178.185 185.793 179.068 186.675C179.951 187.557 180.448 188.754 180.449 190.002V319.293C180.448 320.541 179.951 321.737 179.068 322.62C178.185 323.502 176.988 323.999 175.739 324ZM143.711 186.55C142.795 186.551 141.917 186.915 141.27 187.562C140.622 188.209 140.258 189.087 140.257 190.002V319.293C140.258 320.208 140.622 321.085 141.27 321.733C141.917 322.38 142.795 322.744 143.711 322.745H175.739C176.655 322.744 177.533 322.38 178.181 321.733C178.828 321.085 179.192 320.208 179.193 319.293V190.002C179.192 189.087 178.828 188.209 178.181 187.562C177.533 186.915 176.655 186.551 175.739 186.55H143.711Z" fill="#3F3D56"/>
<path d="M251.729 324H219.7C218.452 323.999 217.254 323.502 216.371 322.62C215.488 321.737 214.992 320.541 214.99 319.293V107.783C214.992 106.535 215.488 105.339 216.371 104.456C217.254 103.574 218.452 103.077 219.7 103.076H251.729C252.977 103.077 254.175 103.574 255.058 104.456C255.941 105.339 256.437 106.535 256.439 107.783V319.293C256.437 320.541 255.941 321.737 255.058 322.62C254.175 323.502 252.977 323.999 251.729 324ZM219.7 104.331C218.785 104.332 217.907 104.696 217.259 105.343C216.612 105.991 216.247 106.868 216.246 107.783V319.293C216.247 320.208 216.612 321.085 217.259 321.733C217.907 322.38 218.785 322.744 219.7 322.745H251.729C252.644 322.744 253.522 322.38 254.17 321.733C254.817 321.085 255.182 320.208 255.183 319.293V107.783C255.182 106.868 254.817 105.991 254.17 105.343C253.522 104.696 252.644 104.332 251.729 104.331H219.7Z" fill="#3F3D56"/>
<path d="M328.427 323.686H296.398C295.316 323.685 294.279 323.255 293.513 322.49C292.748 321.725 292.318 320.688 292.316 319.607V21.4847C292.318 20.4031 292.748 19.3661 293.513 18.6013C294.279 17.8366 295.316 17.4063 296.398 17.4051H328.427C329.509 17.4063 330.547 17.8366 331.312 18.6013C332.077 19.3661 332.508 20.4031 332.509 21.4847V319.607C332.508 320.688 332.077 321.725 331.312 322.49C330.547 323.255 329.509 323.685 328.427 323.686Z" fill="#01A013"/>
<path d="M129.23 139.558C129.346 138.642 129.26 137.713 128.978 136.834C128.696 135.956 128.224 135.15 127.597 134.473C126.969 133.796 126.201 133.265 125.346 132.918C124.491 132.57 123.57 132.414 122.648 132.46L111.484 111.994L108.972 120.781L116.62 139.538C116.801 141.08 117.542 142.503 118.702 143.537C119.862 144.571 121.362 145.143 122.916 145.145C124.471 145.148 125.972 144.58 127.136 143.55C128.299 142.521 129.045 141.1 129.23 139.558V139.558Z" fill="#A0616A"/>
<path d="M43.2168 220.367L49.4347 224.904L69.9045 203.093L60.7269 196.396L43.2168 220.367Z" fill="#A0616A"/>
<path d="M57.2119 239.425L37.6684 225.166L43.181 217.619L55.1736 226.369C57.1762 227.83 58.516 230.027 58.8983 232.475C59.2805 234.924 58.6739 237.424 57.2119 239.425L57.2119 239.425Z" fill="#2F2E41"/>
<path d="M76.1145 244.383L83.8139 244.382L87.4764 214.703L76.1133 214.704L76.1145 244.383Z" fill="#A0616A"/>
<path d="M98.6631 251.527L74.4656 251.528L74.4651 242.184L89.3136 242.184C91.7931 242.184 94.1711 243.168 95.9245 244.92C97.6779 246.672 98.663 249.049 98.6631 251.527Z" fill="#2F2E41"/>
<path d="M99.2377 128.626C99.2377 128.626 103.006 165.028 93.5857 190.133L86.6776 237.833H74.7455L76.0015 181.346L71.6055 131.136C71.6055 131.136 80.3976 108.542 99.2377 128.626Z" fill="#2F2E41"/>
<path d="M58.4175 131.136L70.9776 174.442L46.4854 213.355L58.7315 223.711L86.6777 180.091L78.5137 126.743L58.4175 131.136Z" fill="#2F2E41"/>
<path d="M90.4489 34.0262C98.9676 34.0262 105.873 27.1246 105.873 18.611C105.873 10.0975 98.9676 3.19592 90.4489 3.19592C81.9302 3.19592 75.0244 10.0975 75.0244 18.611C75.0244 27.1246 81.9302 34.0262 90.4489 34.0262Z" fill="#A0616A"/>
<path d="M77.5718 39.8169C77.5718 39.8169 86.9919 33.5406 97.668 47.3484L100.494 134.274C100.494 134.274 92.33 122.977 75.3738 133.647C58.4176 144.316 54.6496 132.392 54.6496 132.392C54.6496 132.392 42.7175 42.6412 77.5718 39.8169Z" fill="#CCCCCC"/>
<path d="M96.9085 47.1292C99.6178 47.2755 102.177 48.418 104.094 50.3367C106.012 52.2555 107.151 54.815 107.294 57.5228L109.286 95.3617L122.475 131.136L114.938 137.413L90.4462 94.734L85.4318 59.6541C85.2019 58.0462 85.3317 56.4074 85.8116 54.8557C86.2915 53.304 87.1097 51.8779 88.2073 50.68C89.3049 49.4822 90.6545 48.5425 92.1591 47.9285C93.6636 47.3145 95.2857 47.0415 96.9085 47.1292Z" fill="#CCCCCC"/>
<path d="M79.1151 30.1739C81.6367 32.8583 86.3197 31.4173 86.6483 27.75C86.6741 27.4652 86.6722 27.1787 86.6427 26.8943C86.4731 25.2699 85.534 23.7951 85.759 22.0799C85.8099 21.653 85.969 21.2462 86.2213 20.898C88.2307 18.2088 92.9476 22.1007 94.844 19.6664C96.0068 18.1736 94.64 15.8234 95.5323 14.1551C96.7101 11.9531 100.198 13.0394 102.386 11.8335C104.82 10.4917 104.674 6.75957 103.072 4.48948C101.118 1.72103 97.6924 0.243753 94.3091 0.0308313C90.9259 -0.182091 87.566 0.731944 84.4074 1.96213C80.8186 3.35985 77.2598 5.29156 75.0513 8.44526C72.3656 12.2805 72.1071 17.4366 73.4503 21.9212C74.2674 24.6492 77.056 27.9818 79.1151 30.1739Z" fill="#2F2E41"/>
<path d="M407.252 323.734H0.747538C0.549596 323.733 0.359951 323.654 0.220188 323.514C0.0804236 323.374 0.00195312 323.184 0.00195312 322.986C0.00195312 322.788 0.0804236 322.599 0.220188 322.459C0.359951 322.319 0.549596 322.24 0.747538 322.239H407.252C407.45 322.24 407.64 322.319 407.779 322.459C407.919 322.599 407.998 322.788 407.998 322.986C407.998 323.184 407.919 323.374 407.779 323.514C407.64 323.654 407.45 323.733 407.252 323.734Z" fill="#3F3D56"/>
</g>
<defs>
<clipPath id="clip0_62_384">
<rect width="408" height="324" fill="white"/>
</clipPath>
</defs>
</svg>
